<?xml version="1.0" standalone="no"?>
<!DOCTYPE svg PUBLIC "-//W3C//DTD SVG 20010904//EN"
 "http://www.w3.org/TR/2001/REC-SVG-20010904/DTD/svg10.dtd">
<svg version="1.0" xmlns="http://www.w3.org/2000/svg"
 width="105px" height="36px" viewBox="0 0 874.000000 298.000000"
 preserveAspectRatio="xMidYMid meet">

<g transform="translate(0.000000,298.000000) scale(0.100000,-0.100000)"
fill="#000000" stroke="none">
<path d="M2332 2130 c-230 -61 -410 -245 -458 -471 -27 -126 -5 -291 54 -404
102 -198 332 -334 564 -335 174 0 321 62 449 189 129 129 186 276 176 456 -9
167 -68 296 -190 411 -156 148 -388 208 -595 154z m233 -215 c205 -33 329
-255 271 -485 -56 -221 -294 -340 -490 -244 -121 59 -192 165 -207 307 -19
185 44 318 185 387 62 31 142 50 181 44 11 -1 38 -6 60 -9z"/>
<path d="M4822 2130 c-231 -62 -410 -247 -456 -472 -20 -97 -20 -149 0 -245
82 -398 526 -608 901 -426 59 28 98 57 159 118 127 125 184 258 184 430 0 172
-56 303 -184 430 -82 81 -138 115 -255 157 -85 30 -254 34 -349 8z m310 -243
c72 -32 142 -101 176 -175 24 -51 27 -68 27 -172 0 -104 -3 -121 -27 -172 -34
-74 -112 -152 -186 -186 -48 -23 -71 -27 -142 -27 -74 0 -93 4 -143 30 -152
76 -224 220 -210 415 11 140 110 257 258 307 61 20 178 11 247 -20z"/>
<path d="M780 2000 l0 -110 190 0 190 0 0 -475 0 -476 133 3 132 3 3 472 2
473 188 2 187 3 2 108 1 107 -514 0 -514 0 0 -110z"/>
<path d="M3148 2083 c10 -16 119 -182 240 -370 l222 -342 0 -215 0 -216 130 0
130 0 0 219 0 219 235 360 c129 198 235 363 235 366 0 3 -65 6 -145 6 l-145 0
-54 -82 c-29 -46 -98 -152 -153 -236 l-101 -153 -153 236 -154 235 -153 0
-153 0 19 -27z"/>
<path d="M5650 2000 l0 -110 185 0 185 0 0 -52 c1 -29 2 -242 3 -473 l2 -420
133 -3 132 -3 0 476 0 475 190 0 190 0 0 110 0 110 -510 0 -510 0 0 -110z"/>
<path d="M6857 1543 c-130 -313 -239 -576 -243 -585 -6 -17 5 -18 144 -18
l150 0 57 145 57 145 248 0 247 0 57 -145 58 -145 145 0 c145 0 145 0 140 22
-4 12 -111 275 -239 585 l-233 563 -176 0 -176 0 -236 -567z m497 104 c42
-109 76 -200 76 -202 0 -3 -74 -5 -164 -5 l-164 0 81 210 c45 115 84 206 88
202 4 -4 41 -96 83 -205z"/>
</g>
</svg>
